<?xml version="1.0" standalone="no"?>
<!DOCTYPE svg PUBLIC "-//W3C//DTD SVG 20010904//EN"
 "http://www.w3.org/TR/2001/REC-SVG-20010904/DTD/svg10.dtd">
<svg version="1.0" xmlns="http://www.w3.org/2000/svg"
 width="250.000000pt" height="250.000000pt" viewBox="0 0 250.000000 250.000000"
 preserveAspectRatio="xMidYMid meet">
<metadata>
Created by potrace 1.14, written by Peter Selinger 2001-2017
</metadata>
<g transform="translate(0.000000,250.000000) scale(0.100000,-0.100000)"
fill="#000000" stroke="none">
<path d="M746 2015 c4 -8 11 -15 16 -15 6 0 5 6 -2 15 -7 8 -14 15 -16 15 -2
0 -1 -7 2 -15z"/>
<path d="M814 2022 c4 -3 14 -7 22 -8 9 -1 13 0 10 4 -4 3 -14 7 -22 8 -9 1
-13 0 -10 -4z"/>
<path d="M887 2024 c-3 -3 -3 -13 1 -22 5 -14 3 -15 -9 -5 -9 7 -26 11 -39 8
-12 -2 -32 0 -42 6 -13 7 -18 7 -14 1 8 -13 -23 -25 -38 -14 -6 4 -17 7 -23 6
-7 -1 -18 -2 -24 -3 -5 0 -7 -6 -3 -12 4 -8 0 -8 -15 0 -14 8 -21 8 -21 1 0
-5 -4 -10 -9 -10 -5 0 -22 -5 -38 -12 -37 -15 -47 -16 -55 -3 -5 6 -8 2 -8 -8
0 -15 -3 -16 -22 -6 -22 12 -22 11 -8 -6 9 -11 10 -16 3 -11 -7 4 -13 3 -13
-2 0 -5 -15 -8 -32 -6 -23 3 -29 1 -18 -5 8 -6 18 -7 24 -4 5 3 6 1 2 -6 -4
-6 -11 -9 -16 -6 -4 3 -11 -1 -13 -7 -4 -10 -6 -10 -6 0 -1 18 -21 15 -21 -4
0 -13 -3 -14 -15 -4 -12 10 -14 8 -10 -12 4 -23 4 -23 -11 -3 -16 20 -16 20
-9 -2 5 -19 2 -23 -17 -24 -13 -1 -26 -1 -30 -1 -3 1 -9 -5 -12 -14 -5 -12 -2
-13 17 -3 20 11 21 11 8 -4 -7 -10 -20 -17 -27 -17 -8 0 -14 -4 -14 -10 0 -5
5 -10 12 -10 6 0 8 -3 5 -6 -4 -4 -13 -1 -22 6 -13 10 -15 9 -15 -8 0 -12 -5
-24 -12 -28 -8 -5 -9 -2 -5 9 3 10 4 17 1 17 -12 0 -21 -45 -10 -53 7 -6 6 -7
-4 -4 -8 2 -14 11 -14 20 1 9 -3 14 -8 11 -5 -4 -8 -21 -6 -39 2 -19 1 -32 -3
-29 -4 2 -11 -1 -14 -7 -4 -5 -14 -8 -22 -4 -14 5 -14 3 -2 -12 12 -15 12 -16
-3 -10 -13 4 -16 1 -13 -14 2 -12 -4 -24 -16 -32 -10 -6 -19 -15 -19 -20 0 -4
4 -5 10 -2 6 3 7 -1 4 -9 -5 -14 -8 -13 -23 2 -9 10 -13 13 -10 7 20 -35 18
-45 -8 -41 l-26 5 22 -23 c20 -22 19 -36 -3 -36 -6 0 -5 4 2 9 11 6 10 10 -4
15 -10 4 -15 4 -12 0 4 -4 3 -15 -3 -25 -7 -14 -6 -17 4 -14 8 4 13 -2 13 -14
0 -14 -4 -17 -12 -10 -8 7 -15 6 -20 -2 -4 -7 -3 -9 2 -6 6 3 16 -3 23 -15 7
-11 8 -17 3 -14 -6 3 -13 -2 -16 -11 -6 -15 -8 -15 -17 -3 -9 13 -10 13 -6 0
2 -8 11 -14 20 -14 9 1 14 -2 11 -7 -3 -5 -12 -9 -20 -9 -12 0 -13 -4 -3 -22
9 -18 9 -20 -4 -15 -10 4 -14 0 -12 -11 1 -9 -3 -21 -9 -25 -7 -6 -6 -7 4 -4
8 2 14 10 12 16 -1 7 2 10 7 7 6 -4 4 -20 -5 -41 -18 -43 -18 -51 1 -35 8 7
12 17 8 23 -3 6 -1 7 6 3 12 -8 1 -30 -24 -48 -6 -5 -5 -8 3 -8 6 0 12 -5 12
-11 0 -5 -4 -7 -10 -4 -6 4 -7 -1 -3 -11 5 -13 3 -15 -8 -9 -10 7 -9 2 3 -17
10 -16 14 -29 8 -33 -10 -6 -2 -35 10 -35 9 0 7 41 -4 58 -5 8 -3 19 3 25 9 9
10 7 5 -7 -5 -12 -4 -17 2 -13 13 7 12 -52 0 -72 -6 -10 -5 -12 2 -7 13 8 14
5 16 -34 1 -29 17 -50 31 -42 6 3 3 -2 -5 -12 -13 -17 -14 -17 -22 1 -7 16 -8
16 -5 -2 2 -12 9 -19 19 -17 9 1 18 -4 21 -12 4 -10 1 -13 -8 -10 -9 4 -12 -1
-11 -13 2 -11 11 -18 24 -17 12 0 19 -3 16 -7 -2 -4 4 -12 13 -18 10 -6 13
-11 7 -11 -5 0 -15 5 -20 10 -7 7 -11 6 -11 -4 0 -8 3 -15 6 -14 18 2 31 -3
31 -12 0 -5 -8 -6 -17 -3 -15 6 -16 5 -3 -9 10 -11 19 -13 27 -7 7 7 14 6 19
-2 4 -7 3 -9 -3 -6 -6 4 -14 0 -17 -9 -4 -10 -2 -13 6 -8 8 5 9 2 4 -11 -5
-15 -4 -16 9 -5 9 7 18 10 22 6 3 -3 1 -6 -5 -6 -6 0 -9 -7 -6 -15 4 -8 12
-15 20 -15 8 0 14 -5 14 -11 0 -5 5 -7 11 -3 8 5 8 1 0 -14 -15 -29 -14 -40 2
-17 11 14 16 15 22 5 5 -9 4 -11 -3 -6 -7 4 -12 2 -12 -3 0 -6 7 -11 16 -11 8
0 12 -4 9 -10 -6 -9 8 -14 28 -11 4 0 7 -8 7 -20 0 -18 4 -20 28 -14 26 6 26
6 7 -10 -11 -9 -15 -14 -9 -11 14 7 47 -28 37 -39 -5 -4 -3 -5 4 -2 6 4 18 0
26 -8 18 -17 31 -20 22 -5 -3 6 1 10 10 10 10 0 13 -5 9 -11 -5 -8 1 -10 19
-7 15 3 24 1 21 -3 -3 -5 0 -17 6 -26 10 -16 11 -16 6 -1 -3 12 -1 15 9 11 8
-3 12 -10 8 -17 -4 -6 1 -4 11 4 16 13 20 12 35 -6 11 -14 27 -20 48 -19 25 1
30 -2 28 -17 -2 -10 0 -16 6 -13 5 4 9 14 10 23 0 11 2 12 6 4 2 -6 9 -10 13
-7 5 3 12 0 16 -6 4 -7 3 -9 -3 -6 -6 4 -16 0 -23 -8 -9 -10 -9 -15 -1 -15 6
0 11 5 11 12 0 6 3 8 7 5 3 -4 12 -2 20 4 9 9 13 8 13 0 0 -6 5 -11 11 -11 5
0 7 6 3 12 -5 7 5 3 20 -10 27 -20 53 -22 41 -1 -4 5 1 9 10 9 9 0 13 -4 10
-10 -4 -6 2 -7 17 -1 15 6 31 5 42 -1 14 -8 17 -7 12 1 -9 14 0 14 27 -1 19
-10 20 -9 10 4 -10 12 -10 14 5 13 9 0 23 -4 30 -9 6 -4 12 -3 12 2 0 15 28
23 36 10 4 -6 3 -8 -4 -4 -6 3 -13 2 -16 -3 -5 -7 22 -8 32 -1 1 2 11 3 21 4
11 0 23 4 27 8 3 4 -3 5 -15 3 -13 -2 -19 0 -15 6 3 6 9 8 12 5 3 -4 16 1 29
10 24 15 24 15 13 -6 -10 -19 -10 -20 9 -8 11 6 17 17 15 23 -3 5 2 1 10 -9 9
-11 16 -14 16 -7 0 7 4 9 10 6 6 -3 7 1 4 9 -7 18 11 22 21 6 11 -18 34 8 27
32 -5 19 -4 20 10 7 9 -7 13 -18 10 -23 -3 -5 0 -6 7 -2 7 5 10 14 7 22 -3 8
0 11 9 7 8 -3 12 -10 8 -17 -4 -8 -2 -8 7 1 15 14 42 6 33 -11 -4 -7 -2 -7 7
1 10 9 16 8 29 -6 9 -9 12 -12 8 -5 -5 7 -3 15 4 20 8 4 9 3 5 -4 -4 -7 -2
-12 3 -12 6 0 11 -6 11 -14 0 -8 5 -18 11 -22 8 -4 9 1 4 17 -4 16 -3 19 3 11
5 -7 25 -14 44 -15 20 -1 34 -5 32 -9 -2 -4 0 -9 6 -13 6 -4 7 -11 4 -17 -4
-7 -2 -8 5 -4 6 4 9 11 6 16 -8 14 34 3 63 -16 20 -13 24 -14 20 -2 -7 16 25
18 39 3 5 -4 2 -5 -4 -1 -7 4 -13 2 -13 -4 0 -7 6 -10 14 -7 7 3 19 0 26 -6
10 -9 10 -6 0 13 l-13 25 23 -20 c13 -11 20 -15 17 -9 -5 8 10 11 49 10 31 0
58 2 60 6 3 4 12 4 20 1 9 -3 20 0 26 8 8 11 9 10 4 -4 -5 -15 -2 -16 14 -7
26 14 30 13 24 -7 -5 -17 -5 -17 6 0 6 9 15 15 20 12 5 -3 11 -1 15 5 4 6 11
8 16 4 5 -3 9 -2 8 3 -3 20 2 27 11 13 8 -13 11 -13 22 -1 11 12 10 12 -2 6
-13 -8 -13 -7 -1 8 15 18 26 23 16 7 -11 -17 7 -11 21 8 13 16 14 16 8 0 -3
-10 -1 -18 5 -18 6 0 11 7 11 16 0 14 2 15 17 3 15 -13 15 -12 4 10 -7 13 -8
21 -3 17 6 -3 12 -3 15 1 2 5 2 2 1 -5 -3 -9 1 -10 15 -3 10 6 21 7 25 3 4 -3
4 1 1 9 -3 9 2 22 11 30 12 9 15 10 10 2 -12 -21 3 -15 29 11 13 13 21 28 17
32 -4 5 2 2 12 -6 18 -14 19 -13 13 2 -7 20 8 34 19 17 5 -8 3 -9 -6 -4 -9 5
-11 4 -6 -4 6 -9 12 -9 24 1 27 20 28 22 11 15 -13 -4 -16 -1 -11 15 3 15 7
16 13 6 7 -10 11 -10 21 0 7 7 13 18 13 24 0 6 6 13 14 16 9 3 11 0 6 -9 -5
-8 -4 -11 0 -6 14 12 16 47 3 47 -6 0 -3 6 8 14 16 13 21 12 36 -1 15 -13 16
-13 14 2 -1 9 -9 21 -17 27 -11 7 -9 9 8 5 13 -3 26 0 30 5 3 6 1 8 -5 4 -6
-3 -13 -2 -17 4 -4 6 -11 7 -17 4 -7 -4 -8 -2 -4 4 4 6 14 8 23 5 10 -4 14 -2
9 5 -3 6 -1 14 5 18 7 4 9 3 6 -2 -3 -6 4 -16 16 -24 20 -12 21 -12 9 2 -8 10
-10 26 -6 42 4 18 2 26 -7 26 -7 0 -10 2 -7 5 9 10 38 -7 31 -18 -3 -6 -1 -7
6 -3 9 6 9 11 -1 23 -10 12 -9 17 5 24 9 6 17 15 17 22 0 8 -3 8 -8 2 -4 -5
-14 -11 -22 -13 -11 -2 -10 2 4 12 10 8 15 19 12 25 -4 5 -2 12 3 15 5 4 13 1
17 -5 4 -8 3 -9 -4 -5 -18 11 -14 0 5 -15 11 -10 14 -10 9 -1 -4 6 -2 12 3 12
6 0 11 5 11 11 0 5 -3 8 -7 6 -5 -3 -14 1 -21 9 -11 12 -9 14 8 14 18 0 19 3
9 23 -12 21 -11 21 7 7 18 -15 18 -14 2 11 -17 26 -17 27 5 21 22 -5 22 -5 -2
17 -13 11 -18 21 -11 21 6 0 10 7 7 14 -4 10 -1 13 9 9 7 -3 14 0 14 7 0 6 6
8 13 4 7 -4 8 -3 4 2 -5 5 -14 9 -20 9 -7 0 -12 5 -13 10 0 6 9 9 20 7 19 -2
19 -1 -4 13 -14 9 -17 14 -8 11 10 -3 20 0 24 6 4 7 3 8 -5 4 -15 -10 -11 85
4 97 6 5 4 7 -5 4 -8 -2 -15 -9 -15 -15 0 -6 -7 -17 -15 -24 -12 -11 -12 -11
-2 3 9 12 9 19 -1 29 -8 8 -8 11 -1 7 7 -4 15 0 18 9 4 12 2 15 -9 10 -12 -4
-13 -2 -3 14 8 12 16 16 23 10 8 -6 12 -5 12 3 0 7 -9 14 -19 14 -10 1 -18 -2
-18 -8 0 -5 -6 -9 -12 -9 -7 1 -4 8 8 18 19 16 19 19 6 32 -14 13 -15 12 -10
-2 4 -10 1 -19 -7 -22 -11 -4 -12 0 -5 20 13 32 13 34 -2 30 -7 -1 -10 -1 -5
1 4 3 7 13 7 24 0 10 5 19 12 19 6 0 8 3 4 7 -4 5 -14 -1 -22 -11 -8 -11 -14
-14 -14 -8 0 7 9 21 20 32 24 24 15 27 -11 4 -13 -12 -19 -12 -25 -3 -4 8 -3
10 4 5 8 -5 12 0 12 13 0 12 -5 21 -11 21 -6 0 -9 9 -6 20 3 11 1 18 -4 15
-10 -7 -40 49 -37 66 2 6 -4 14 -12 16 -13 4 -13 3 0 -6 8 -6 10 -11 4 -11 -6
0 -17 7 -24 15 -10 12 -10 18 1 32 12 14 12 16 0 8 -11 -6 -13 -4 -7 11 4 10
4 15 0 11 -4 -4 -14 -1 -23 6 -14 10 -14 10 -4 -4 10 -12 10 -16 0 -16 -7 0
-14 9 -14 19 -1 10 3 18 9 18 6 0 8 3 5 6 -4 4 -14 1 -24 -7 -9 -8 -14 -9 -10
-3 8 14 -16 37 -28 26 -5 -4 -5 -1 -1 6 6 10 11 10 22 1 10 -8 14 -8 14 0 0
11 -9 14 -43 14 -10 0 -15 2 -13 5 3 3 -2 11 -12 19 -9 8 -11 11 -4 8 12 -6
12 -3 2 16 -17 32 -17 32 -24 14 -3 -9 -2 -13 4 -10 6 3 7 -1 3 -10 -4 -13 -8
-14 -14 -4 -4 7 -5 17 -3 21 3 4 -2 5 -10 2 -10 -4 -16 -1 -16 10 0 10 6 13
18 9 9 -3 14 -3 10 2 -4 4 -18 8 -30 9 -14 1 -23 7 -22 16 1 11 -8 15 -33 14
-25 -2 -33 2 -31 13 2 9 -3 18 -9 20 -7 3 -13 0 -13 -7 0 -6 5 -8 12 -4 6 4 8
3 5 -4 -6 -9 -15 -9 -46 -3 -2 1 3 8 10 18 13 15 12 15 -8 5 -14 -8 -24 -9
-28 -2 -4 6 -11 8 -16 4 -6 -3 -9 2 -7 11 2 13 -4 19 -20 20 -13 1 -25 -2 -28
-7 -3 -5 -12 -4 -20 3 -8 6 -23 9 -34 6 -11 -3 -23 -1 -26 4 -3 6 -14 7 -24 4
-12 -4 -24 2 -35 17 -15 21 -16 21 -13 3 2 -14 -2 -19 -12 -16 -39 10 -110 9
-104 -1 4 -7 2 -8 -5 -4 -6 4 -9 11 -6 16 3 5 0 12 -6 16 -7 4 -9 3 -5 -4 3
-6 2 -13 -3 -17 -5 -3 -13 1 -18 9 -7 12 -10 12 -23 -2 -13 -14 -12 -15 3 -9
24 9 21 0 -4 -14 -13 -7 -19 -7 -15 -1 10 16 -14 26 -27 12 -9 -10 -9 -11 1
-6 6 4 12 3 12 -2 0 -6 -15 -9 -32 -8 -19 0 -32 -4 -31 -10 2 -14 -31 -11 -49
4 -12 9 -15 9 -15 -3 0 -8 5 -11 11 -8 6 4 5 -1 -3 -10 -15 -18 -26 -23 -16
-7 9 15 0 12 -39 -11 -32 -18 -35 -19 -44 -3 -8 14 -10 14 -15 1 -4 -10 -14
-14 -27 -12 -23 4 -26 -5 -7 -25 6 -8 3 -7 -9 3 -24 20 -38 22 -28 5 5 -10 4
-10 -6 -1 -15 13 -4 36 13 27 7 -4 8 -3 4 1 -10 12 -38 15 -31 4 3 -5 -6 -8
-19 -7 -17 2 -23 7 -19 16 4 12 1 12 -16 3 -18 -9 -21 -9 -16 3 3 8 0 17 -7
22 -8 4 -10 3 -5 -4 4 -7 2 -12 -3 -12 -6 0 -11 6 -11 14 0 8 -4 17 -9 20 -5
4 -7 -4 -3 -16 3 -14 2 -19 -6 -14 -7 4 -12 15 -13 24 0 14 -2 13 -9 -3 -5
-11 -9 -14 -9 -7 -1 6 -6 12 -12 12 -5 0 -7 -5 -4 -11 4 -6 -2 -5 -13 2 -12 7
-18 18 -15 24 4 5 -3 2 -14 -8 -21 -18 -40 -12 -23 8 7 8 4 11 -10 10 -11 -1
-23 -5 -27 -10 -5 -4 -2 -5 6 0 10 6 12 4 7 -4 -6 -9 -11 -9 -21 -1 -8 7 -20
8 -26 4 -7 -4 -9 -3 -5 4 7 11 -7 25 -17 16z m1043 -58 c-7 -7 -13 -7 -20 0
-6 6 -3 10 10 10 13 0 16 -4 10 -10z m-620 -45 c0 -14 -29 -21 -36 -9 -4 6 -3
8 4 4 6 -3 13 -2 17 4 8 12 15 13 15 1z m780 -31 c0 -5 -2 -10 -4 -10 -3 0 -8
5 -11 10 -3 6 -1 10 4 10 6 0 11 -4 11 -10z m-1256 -71 c-8 -14 -21 -11 -21 5
0 8 6 12 14 9 7 -3 10 -9 7 -14z m-4 -24 c8 -5 12 -5 8 0 -4 4 -1 14 7 21 19
19 28 18 21 -3 -5 -16 -5 -16 7 -2 11 14 14 14 26 2 11 -12 16 -12 34 4 11 10
17 12 13 5 -10 -17 21 -27 38 -13 12 10 14 8 10 -11 -5 -20 -4 -21 6 -6 9 15
14 16 30 5 11 -6 20 -16 20 -21 0 -4 -6 -3 -14 3 -10 8 -16 9 -21 1 -4 -6 -1
-9 7 -8 7 2 12 -2 11 -7 -1 -6 8 -12 20 -12 13 -1 17 1 10 5 -8 5 -9 13 -3 22
8 13 10 12 10 -3 0 -10 4 -16 8 -13 5 3 9 -1 9 -9 0 -8 -4 -12 -9 -9 -4 3 -8
-2 -8 -10 0 -9 -5 -16 -11 -16 -5 0 -7 5 -4 11 4 6 -2 5 -14 -2 -14 -10 -17
-16 -8 -21 8 -5 8 -11 2 -15 -5 -5 -10 -17 -10 -28 0 -13 -6 -19 -16 -17 -9 1
-19 -4 -22 -12 -4 -11 -1 -13 11 -9 14 6 15 5 2 -9 -9 -10 -19 -13 -24 -7 -6
5 -15 9 -20 9 -6 0 -5 -4 3 -9 16 -11 5 -34 -12 -24 -7 3 -3 -4 8 -17 11 -13
15 -20 9 -17 -7 4 -14 -2 -17 -14 -4 -13 -10 -18 -18 -13 -8 5 -10 3 -5 -5 5
-7 14 -10 22 -7 12 5 12 2 2 -17 -7 -12 -13 -25 -14 -29 -1 -5 -3 -10 -4 -13
-1 -3 -3 -11 -4 -17 -1 -7 -8 -12 -17 -12 -9 1 -16 -5 -16 -12 0 -7 4 -11 9
-8 4 3 8 0 8 -6 0 -6 4 -8 10 -5 6 4 7 -1 3 -11 -5 -13 -8 -14 -11 -5 -4 11
-6 11 -13 0 -6 -10 -9 -11 -9 -1 0 6 -6 12 -12 12 -7 -1 -3 -9 10 -19 27 -23
29 -35 3 -21 -15 7 -19 7 -17 -5 1 -8 5 -18 9 -21 10 -10 9 -26 -1 -20 -5 3
-9 -1 -9 -9 0 -8 4 -12 9 -9 13 8 9 -20 -4 -36 -11 -12 -10 -12 4 -2 12 10 18
10 24 1 5 -8 3 -9 -5 -5 -8 5 -12 3 -10 -5 4 -31 -2 -60 -10 -54 -5 3 -13 1
-16 -5 -4 -6 -3 -10 2 -9 20 3 27 -2 13 -12 -12 -8 -11 -9 5 -5 16 5 21 1 22
-14 1 -11 -3 -20 -8 -20 -6 0 -7 4 -4 10 4 6 -1 7 -11 3 -14 -5 -14 -7 -1 -14
9 -5 14 -20 13 -34 -2 -13 0 -23 3 -21 3 3 15 -2 26 -10 10 -8 13 -14 7 -14
-7 0 -12 -5 -12 -11 0 -5 5 -7 12 -3 7 5 8 3 2 -7 -12 -20 -14 -38 -4 -44 5
-3 7 4 5 16 -2 12 -1 18 3 15 4 -4 6 -11 5 -14 -1 -4 6 -16 15 -27 16 -18 16
-19 0 -7 -29 23 -18 -26 12 -52 14 -12 26 -30 27 -41 1 -11 0 -14 -3 -7 -3 6
-10 12 -16 12 -6 0 -4 -8 4 -17 9 -10 13 -25 11 -33 -4 -13 -3 -13 6 0 5 8 8
17 6 20 -2 3 5 6 15 6 17 0 17 -2 1 -26 -13 -20 -13 -23 -1 -13 12 9 19 7 36
-12 17 -19 19 -25 7 -29 -9 -4 -11 -2 -7 6 4 7 3 8 -5 4 -6 -4 -9 -12 -5 -17
3 -5 9 -7 14 -4 5 3 11 1 15 -5 10 -17 -55 -69 -79 -64 -11 3 -28 7 -36 8 -8
2 -20 0 -25 -5 -6 -4 -29 -12 -52 -17 -33 -8 -40 -7 -36 4 6 15 -52 11 -72 -6
-9 -8 -17 -7 -28 5 -19 18 -31 20 -22 3 4 -7 -2 -2 -13 11 -18 23 -68 39 -56
19 4 -5 12 -7 19 -4 7 2 16 -1 19 -9 3 -10 0 -12 -12 -8 -27 10 -52 35 -45 46
3 6 1 7 -5 3 -6 -4 -9 -14 -6 -24 5 -15 5 -15 -6 1 -6 9 -8 22 -4 29 4 6 3 8
-3 5 -6 -4 -16 0 -23 8 -10 12 -16 13 -28 3 -13 -11 -15 -10 -8 6 7 19 6 19
-12 3 -19 -17 -19 -17 -15 10 4 27 4 27 -12 8 -16 -19 -16 -19 -11 7 2 15 2
27 -2 26 -13 -4 -52 13 -52 23 0 5 -6 9 -14 9 -8 0 -18 4 -21 10 -8 13 26 1
47 -18 9 -8 23 -12 30 -9 9 4 9 6 -3 6 -8 1 -30 16 -49 34 -18 17 -30 25 -25
17 8 -13 6 -13 -7 -2 -10 8 -14 20 -11 29 4 9 2 14 -3 10 -6 -3 -16 -2 -24 4
-10 5 -11 9 -3 9 7 0 10 7 6 17 -4 9 -2 14 3 11 5 -4 9 4 9 17 0 13 -3 21 -7
18 -5 -2 -8 -11 -8 -19 0 -29 -23 -13 -29 21 -2 6 -10 19 -19 30 -17 20 -17
20 6 0 l24 -20 -13 27 c-6 15 -16 25 -22 21 -6 -3 -7 -1 -3 5 3 6 2 13 -3 17
-11 6 -3 36 13 47 7 5 6 8 -3 8 -11 0 -11 3 0 17 8 10 9 14 2 10 -6 -4 -14 -3
-18 3 -3 6 1 13 10 16 14 6 14 8 -2 19 -10 7 -21 11 -25 9 -5 -3 -8 0 -8 6 0
7 7 9 16 6 10 -4 14 -2 11 6 -2 7 -10 12 -16 10 -7 -1 -10 2 -6 8 3 6 11 8 16
5 5 -3 6 1 3 9 -3 9 -11 13 -18 9 -7 -4 -7 -1 1 9 7 8 9 19 5 23 -4 5 -2 6 3
3 6 -3 16 1 24 9 12 13 11 14 -10 8 -20 -7 -22 -6 -11 7 13 16 17 50 9 83 -2
11 -2 14 0 8 9 -25 23 -12 19 17 -2 16 1 27 5 24 5 -3 17 0 26 5 11 6 13 11 5
11 -7 0 -10 5 -6 12 4 7 3 8 -5 4 -6 -4 -8 -12 -5 -18 4 -7 2 -8 -4 -4 -14 8
-5 33 14 40 9 3 12 11 8 17 -5 8 -1 8 13 1 15 -9 20 -8 20 3 0 8 -5 11 -11 8
-6 -3 -8 -3 -4 2 4 4 3 14 -4 22 -9 11 -8 13 2 11 8 -2 15 3 16 10 1 6 2 18 3
25 1 8 4 7 11 -3 9 -13 11 -13 19 0 7 9 6 19 -1 28 -9 10 -8 12 3 10 8 -2 13
3 11 10 -1 8 2 11 8 7 6 -3 8 -11 5 -16 -4 -5 -1 -9 6 -9 6 0 9 8 6 20 -3 11
-1 17 4 14 5 -3 11 1 14 8 3 7 16 14 30 14 15 1 22 -2 18 -9 -3 -5 -1 -7 5 -3
6 3 8 18 6 33 -5 26 -5 26 20 10 18 -12 27 -14 32 -5 4 6 3 8 -3 5 -6 -4 -17
1 -24 11 -7 9 -10 14 -5 10 13 -11 48 11 39 25 -4 7 2 5 12 -3 17 -13 18 -13
13 1 -4 10 -1 16 8 16 9 0 13 -6 9 -16 -5 -12 -3 -13 6 -4 6 6 19 9 28 6 11
-4 10 -1 -4 11 -19 16 -19 16 8 6 19 -7 26 -7 22 0 -4 7 3 9 19 6 15 -3 24 -1
21 5 -4 5 -10 7 -15 4 -5 -3 -11 -1 -15 4 -3 6 4 8 16 6 12 -3 29 0 38 5 10 5
21 4 31 -4 8 -7 22 -17 30 -21z m794 23 c-3 -4 0 -8 5 -8 6 0 11 4 11 9 0 10
19 9 38 -2 7 -5 12 -4 12 2 0 6 5 11 11 11 6 0 9 -7 6 -14 -4 -11 -1 -13 11
-9 9 4 20 11 24 17 6 8 8 8 8 0 0 -6 12 -11 28 -12 46 -1 60 -7 82 -32 l21
-25 -12 25 c-11 23 -11 24 4 11 10 -7 17 -10 17 -7 0 4 5 4 10 1 8 -5 8 -11 0
-20 -8 -10 -8 -15 1 -21 7 -4 9 -3 6 3 -4 6 2 13 13 16 11 3 23 1 26 -4 3 -5
10 -6 16 -3 6 4 9 3 5 -2 -3 -5 1 -20 9 -34 l15 -25 -7 25 -6 25 18 -25 c22
-30 35 -40 46 -34 4 3 8 -3 8 -13 0 -15 2 -16 11 -3 8 11 9 9 3 -10 -6 -23 -6
-24 11 -10 17 14 17 13 7 -7 -13 -23 1 -43 14 -22 5 8 3 9 -7 4 -8 -5 -11 -5
-7 -1 10 11 23 8 23 -6 0 -7 8 -12 18 -12 9 1 17 -3 17 -8 0 -6 -12 -8 -27 -4
-25 6 -26 5 -8 -6 11 -7 26 -13 33 -14 8 -2 17 -6 20 -10 4 -4 -1 -4 -10 -1
-10 4 -18 2 -18 -3 0 -9 15 -14 33 -11 5 1 5 -4 1 -11 -12 -19 -14 -39 -3 -32
5 3 7 9 5 13 -3 4 1 8 9 8 11 0 12 -4 4 -14 -9 -9 -7 -14 5 -19 15 -6 15 -8
-1 -21 -10 -8 -12 -11 -4 -7 10 5 11 1 6 -15 -5 -16 -2 -21 12 -21 15 0 16 2
3 10 -8 5 -10 10 -5 10 6 0 16 -4 24 -9 11 -7 9 -10 -7 -16 -18 -5 -19 -9 -9
-20 6 -7 15 -11 19 -8 4 2 5 -3 2 -11 -3 -9 -10 -14 -14 -11 -5 3 -11 1 -14
-4 -4 -5 4 -8 17 -7 20 3 23 -1 19 -22 -4 -19 -2 -23 9 -17 11 6 12 5 2 -6 -7
-7 -13 -31 -13 -54 0 -23 -6 -47 -12 -55 -11 -12 -10 -12 3 -2 12 9 16 9 16
-3 0 -8 -6 -15 -13 -15 -7 0 -16 -4 -19 -10 -3 -5 0 -7 8 -4 19 7 32 -12 16
-22 -8 -5 -9 -3 -4 6 6 9 4 11 -5 5 -10 -6 -9 -11 6 -23 12 -9 13 -13 4 -10
-8 3 -22 -2 -30 -10 -13 -14 -12 -15 3 -9 15 6 17 3 12 -14 -6 -16 -4 -20 6
-14 11 6 11 5 3 -4 -9 -10 -17 -10 -35 -1 l-24 11 23 -18 c13 -10 20 -22 15
-26 -6 -7 -13 -28 -15 -53 -1 -6 -12 -10 -25 -8 -13 1 -21 -2 -17 -7 3 -5 9
-7 14 -4 5 3 12 0 16 -6 5 -8 3 -9 -5 -5 -8 5 -11 3 -9 -5 1 -8 -2 -15 -7 -16
-6 -2 -10 1 -10 6 0 5 -4 13 -9 18 -5 4 -6 3 -2 -4 3 -6 1 -15 -5 -19 -9 -5
-7 -11 6 -21 17 -12 18 -13 1 -13 -9 0 -15 -4 -11 -9 3 -5 0 -13 -6 -17 -7 -4
-9 -3 -6 3 3 5 0 10 -8 10 -11 0 -12 -5 -3 -21 10 -19 9 -19 -4 -8 -13 10 -18
10 -24 1 -4 -7 -3 -9 3 -6 6 4 13 1 16 -7 6 -15 -9 -16 -31 -2 -12 7 -12 4 -1
-15 12 -23 11 -23 -6 -9 -17 14 -17 14 -7 -6 10 -18 8 -20 -19 -18 -16 1 -26
-2 -23 -7 5 -8 -10 -13 -29 -10 -5 1 -6 -3 -2 -9 3 -5 2 -10 -4 -10 -6 0 -8
-7 -5 -15 5 -11 2 -13 -10 -9 -9 3 -13 11 -9 18 3 6 2 7 -3 3 -12 -12 -12 -30
1 -40 6 -5 3 -7 -7 -4 -9 3 -21 0 -27 -7 -7 -8 -22 -11 -38 -8 -21 4 -25 2
-20 -12 5 -14 3 -15 -13 -6 -16 9 -19 8 -14 -7 3 -10 -2 -7 -11 7 -10 16 -14
18 -11 6 5 -14 2 -17 -10 -12 -9 4 -24 1 -32 -6 -11 -9 -14 -9 -9 -1 4 6 2 15
-4 19 -8 4 -9 3 -5 -4 4 -7 3 -12 -3 -12 -6 0 -8 -8 -4 -17 4 -12 0 -11 -11 5
-10 12 -23 22 -29 21 -9 0 -9 -2 1 -6 21 -8 13 -21 -10 -15 -13 3 -19 1 -15
-5 5 -8 -1 -7 -17 0 -15 7 -20 14 -14 18 6 4 0 6 -15 6 -15 -1 -22 -6 -17 -12
5 -6 -1 -10 -15 -10 -13 0 -23 2 -23 5 2 27 -3 33 -15 16 -12 -16 -13 -16 -32
2 -11 10 -30 19 -42 20 -45 3 -52 5 -47 14 3 5 8 7 12 5 4 -2 15 4 24 14 16
17 16 18 -3 24 -10 4 -16 11 -13 17 4 6 9 7 13 1 7 -12 42 -13 35 -1 -3 5 -10
5 -16 2 -7 -4 -8 -2 -4 4 4 7 1 12 -6 12 -8 0 -6 5 5 11 9 6 15 14 12 20 -3 5
1 6 9 3 9 -3 16 -10 16 -16 0 -5 5 -6 11 -3 6 5 4 12 -8 22 -16 13 -16 14 -1
9 11 -3 17 0 15 7 -1 7 4 11 11 9 8 -1 11 2 7 8 -5 8 -11 8 -20 0 -10 -8 -15
-8 -21 1 -4 7 -3 9 4 5 6 -3 14 -2 17 4 4 6 16 8 27 4 18 -5 19 -4 7 9 -10 11
-20 12 -34 6 -16 -8 -16 -6 3 7 12 9 22 22 22 30 0 8 9 11 28 8 18 -3 23 -1
13 5 -9 6 -10 11 -2 15 6 4 9 12 5 17 -3 5 -10 7 -15 3 -5 -3 -7 -10 -4 -15 4
-5 1 -9 -4 -9 -9 0 -9 19 -2 48 1 1 10 -2 20 -8 14 -7 22 -7 27 2 4 6 3 8 -3
5 -6 -4 -16 0 -22 7 -9 11 -9 16 0 22 7 4 9 3 6 -3 -3 -5 0 -10 7 -10 8 0 11
8 9 18 -3 11 -11 15 -21 12 -10 -4 -2 6 16 21 17 15 29 32 26 37 -3 5 -10 7
-15 3 -5 -3 -7 -9 -4 -14 3 -4 -2 -11 -10 -14 -13 -4 -14 -2 -5 14 6 11 7 20
3 20 -4 0 -2 5 5 12 16 16 15 31 0 23 -7 -4 -4 0 6 9 10 8 24 13 30 9 6 -3 8
-3 4 2 -4 4 -3 14 4 22 6 8 7 13 2 12 -20 -3 -32 2 -38 16 -4 13 -2 14 14 5
16 -9 18 -8 14 5 -4 8 -10 15 -15 15 -5 0 -9 8 -9 18 0 13 2 14 9 4 5 -9 8 3
7 32 0 31 -5 46 -14 46 -8 0 -10 -5 -5 -12 4 -7 9 -22 10 -33 l3 -20 -12 20
c-19 32 -18 46 5 55 18 7 19 9 4 9 -10 1 -15 6 -12 11 4 6 11 7 17 4 7 -4 8
-2 4 4 -4 6 -14 8 -23 5 -11 -4 -14 -3 -9 5 4 7 0 15 -9 18 -13 6 -14 8 -3 15
11 8 11 10 0 18 -11 7 -10 9 3 14 9 4 13 3 10 -2 -3 -5 -1 -12 4 -15 5 -4 8 2
7 11 -2 11 -11 18 -25 17 -11 -1 -21 3 -21 7 0 8 23 13 43 10 5 -1 6 3 2 9 -3
6 -11 7 -17 4 -6 -4 -19 4 -29 17 -16 21 -16 26 -3 40 12 13 12 19 3 25 -8 4
-10 3 -5 -4 5 -8 0 -12 -13 -12 -12 0 -21 5 -21 11 0 5 6 7 13 4 6 -4 4 0 -5
8 -10 8 -18 25 -18 38 0 20 -2 21 -11 9 -9 -13 -10 -12 -5 3 3 11 0 20 -9 23
-8 4 -15 10 -15 15 0 4 6 6 14 3 8 -3 16 -1 20 4 6 10 -24 10 -40 -1 -6 -3
-11 0 -11 8 0 8 6 15 14 15 7 0 13 4 13 9 0 12 -33 9 -43 -4 -5 -6 -7 -3 -4 7
4 9 -1 19 -10 22 -12 5 -13 9 -3 21 6 8 17 13 23 12 7 -1 11 4 9 11 -2 10 2
10 18 2 17 -9 20 -8 20 7 0 15 2 16 10 3 9 -14 14 -7 11 13 -1 5 3 6 9 2 6 -3
8 -10 5 -15 -3 -5 0 -12 6 -16 8 -4 9 -3 5 4 -4 7 -2 12 4 12 6 0 8 5 4 12 -4
6 -3 8 4 4 6 -3 13 -2 17 3 3 5 14 9 25 8 10 -1 16 -5 14 -9z m-1102 -110 c-7
-7 -12 -8 -12 -2 0 14 12 26 19 19 2 -3 -1 -11 -7 -17z m548 -3 c0 -12 -19
-12 -23 0 -4 9 -1 12 9 8 7 -3 14 -7 14 -8z m188 -87 c-2 -7 5 -12 15 -10 9 2
17 -2 17 -8 0 -5 -5 -10 -11 -10 -6 0 -3 -7 6 -16 13 -14 18 -14 32 -2 10 7
14 8 10 1 -4 -6 0 -19 9 -27 8 -9 11 -16 6 -16 -5 0 -14 -12 -21 -27 l-12 -28
19 23 c16 21 20 22 31 8 9 -11 10 -16 2 -16 -6 0 -11 5 -11 12 0 6 -2 9 -5 7
-7 -8 7 -49 17 -49 5 0 6 6 2 13 -5 8 -3 8 9 -2 20 -16 13 -32 -11 -25 -9 3
-6 -2 8 -10 22 -14 21 -21 -3 -17 -5 1 -6 -3 -2 -9 4 -6 16 -8 27 -4 20 6 20
6 0 -14 -18 -18 -19 -24 -9 -46 7 -14 18 -24 25 -21 6 2 12 0 12 -5 0 -6 -5
-10 -11 -10 -5 0 -7 -5 -3 -11 10 -17 12 -89 2 -89 -5 0 -7 4 -3 9 3 5 2 12
-3 15 -5 3 -8 -8 -8 -25 0 -20 3 -26 10 -19 5 5 15 10 21 10 5 0 -3 -9 -19
-19 -29 -19 -44 -51 -24 -51 6 0 8 6 5 14 -3 8 2 16 14 19 17 5 18 3 4 -16
-11 -16 -12 -24 -2 -36 8 -10 8 -13 1 -8 -7 4 -14 0 -18 -8 -3 -9 -12 -12 -23
-9 -17 5 -17 5 0 -6 9 -6 21 -9 25 -6 5 3 9 -1 9 -8 0 -15 -14 -15 -34 -3 -7
5 -13 4 -13 -2 0 -5 10 -13 21 -16 16 -5 18 -9 9 -15 -7 -4 -9 -13 -6 -19 5
-7 2 -10 -6 -9 -7 2 -12 -3 -10 -10 1 -8 -2 -11 -7 -8 -13 8 -44 -43 -37 -60
3 -9 1 -12 -4 -9 -6 3 -10 1 -10 -5 0 -6 -5 -8 -12 -4 -6 4 -8 3 -4 -4 3 -6 2
-13 -4 -17 -5 -3 -10 1 -10 9 0 19 -11 21 -28 4 -16 -16 -16 4 1 22 6 8 1 6
-12 -5 -14 -11 -21 -15 -18 -8 4 6 0 16 -10 22 -10 6 -12 11 -5 11 6 0 12 5
12 11 0 5 -4 7 -10 4 -5 -3 -10 3 -10 14 0 12 6 21 13 21 6 0 4 5 -6 11 -9 6
-15 14 -12 19 3 5 1 11 -4 14 -5 4 -13 1 -17 -5 -4 -7 -3 -9 3 -6 5 3 10 0 10
-7 0 -8 -7 -12 -14 -9 -8 3 -12 11 -10 17 2 6 0 20 -6 31 -9 17 -8 18 5 7 13
-10 18 -10 24 -1 4 7 3 10 -2 6 -5 -3 -18 1 -29 9 -15 11 -16 17 -7 26 17 17
15 33 -3 18 -9 -7 -18 -10 -22 -6 -3 3 -1 6 5 6 7 0 12 15 12 35 0 19 -4 35
-8 35 -5 0 -8 12 -7 28 1 15 -3 33 -9 41 -9 12 -8 13 3 7 10 -7 12 -3 6 13 -4
14 -2 23 9 27 8 3 12 12 9 20 -3 8 -10 11 -17 7 -7 -4 -7 -2 1 7 10 11 15 11
30 0 14 -11 15 -11 6 -1 -13 16 -6 44 10 34 6 -4 7 -1 3 6 -6 9 -13 8 -27 -5
-11 -9 -22 -14 -26 -11 -3 4 -1 7 6 7 7 0 9 5 5 12 -5 7 -3 8 6 3 10 -6 12 -4
7 9 -4 9 -3 15 1 12 4 -3 13 4 20 15 13 20 3 26 -14 9 -7 -7 -11 -6 -11 4 0 8
3 15 6 14 18 -2 31 3 31 13 0 5 -5 7 -12 3 -7 -5 -8 -3 -4 5 5 7 14 10 22 7
13 -5 18 6 15 27 0 4 3 7 7 7 4 0 9 11 10 26 1 17 -2 23 -11 18 -7 -4 -9 -3
-4 2 5 5 13 10 18 10 22 3 23 5 9 15 -13 9 -13 10 0 8 29 -3 41 1 35 11 -4 6
-12 7 -18 3 -7 -4 -6 0 2 10 16 20 22 22 19 5z m-268 -32 c0 -2 -7 -7 -16 -10
-8 -3 -12 -2 -9 4 6 10 25 14 25 6z m320 -6 c0 -5 -2 -10 -4 -10 -3 0 -8 5
-11 10 -3 6 -1 10 4 10 6 0 11 -4 11 -10z m-119 -59 c-6 -10 -7 -21 -4 -25 3
-3 1 -6 -6 -6 -14 0 -11 31 4 42 15 12 17 10 6 -11z m208 -152 c-12 -7 -12 -9
0 -9 8 0 12 -3 8 -6 -10 -10 -26 6 -21 21 4 8 11 12 16 9 6 -4 5 -10 -3 -15z
m-489 -51 c0 -6 -6 -5 -15 2 -8 7 -15 14 -15 16 0 2 7 1 15 -2 8 -4 15 -11 15
-16z m-2 -43 c-3 -3 -9 2 -12 12 -6 14 -5 15 5 6 7 -7 10 -15 7 -18z m1553
-14 c-6 -10 -7 -22 -3 -27 4 -5 -1 -2 -10 5 -18 14 -25 27 -9 17 5 -3 11 1 15
9 3 8 8 15 11 15 3 0 1 -8 -4 -19z m-2162 -78 c-7 -10 -14 -19 -15 -21 -1 -2
-4 4 -8 13 -3 9 -2 13 4 10 6 -3 10 -1 10 4 0 6 5 11 11 11 8 0 7 -6 -2 -17z
m1341 7 c-8 -5 -19 -10 -25 -10 -5 0 -3 5 5 10 8 5 20 10 25 10 6 0 3 -5 -5
-10z m-726 -8 c3 -5 -1 -9 -9 -9 -8 0 -12 4 -9 9 3 4 7 8 9 8 2 0 6 -4 9 -8z
m-607 -37 c0 -8 -4 -15 -9 -15 -10 0 -11 14 -1 23 9 10 10 9 10 -8z m876 -166
c-4 -15 -8 -17 -14 -8 -6 11 4 28 18 29 0 0 -1 -9 -4 -21z m159 -26 c-6 -3 -9
-10 -6 -15 4 -7 2 -8 -5 -4 -9 6 -9 11 0 22 6 8 15 12 18 8 3 -4 0 -9 -7 -11z
m-372 -24 c0 -5 5 -7 12 -3 7 4 8 3 4 -5 -6 -9 -11 -9 -22 0 -17 14 -18 19 -4
19 6 0 10 -5 10 -11z m293 -49 c3 -11 1 -18 -4 -14 -5 3 -9 12 -9 20 0 20 7
17 13 -6z m772 -99 c-6 -6 -10 -7 -36 -10 -5 0 -7 -6 -3 -13 5 -7 3 -8 -6 -3
-10 6 -7 12 11 26 21 16 50 16 34 0z m-1446 -35 c9 -10 8 -15 -2 -19 -8 -3
-13 3 -13 14 0 23 0 23 15 5z m881 10 c0 -2 -7 -7 -16 -10 -8 -3 -12 -2 -9 4
6 10 25 14 25 6z m780 -40 c0 -3 -4 -8 -10 -11 -5 -3 -10 -1 -10 4 0 6 5 11
10 11 6 0 10 -2 10 -4z m-1310 -46 c-24 -15 -36 -11 -14 4 10 8 21 12 24 10 2
-3 -2 -9 -10 -14z m-110 2 c0 -4 -10 -9 -22 -9 -18 -2 -20 0 -8 7 18 12 30 13
30 2z m-415 -44 c5 4 5 1 1 -5 -7 -12 5 -18 27 -14 5 1 6 -3 2 -9 -8 -12 -35
1 -56 27 -12 16 -12 17 2 6 9 -7 20 -9 24 -5z m780 -58 c-3 -5 -1 -10 5 -10 6
0 8 -5 4 -11 -4 -8 -9 -7 -15 2 -7 12 -3 29 7 29 3 0 2 -4 -1 -10z m703 -52
c-5 -14 -36 -20 -43 -8 -3 5 4 7 15 5 11 -2 20 0 20 6 0 5 3 9 6 9 3 0 4 -5 2
-12z m-1108 -33 c11 -13 10 -14 -4 -9 -9 3 -16 10 -16 15 0 13 6 11 20 -6z"/>
<path d="M777 1813 c-4 -3 -7 -11 -7 -17 0 -6 5 -5 12 2 6 6 9 14 7 17 -3 3
-9 2 -12 -2z"/>
<path d="M485 1669 c-4 -6 -5 -12 -2 -15 2 -3 7 2 10 11 7 17 1 20 -8 4z"/>
<path d="M1002 1666 c7 -8 15 -12 17 -11 5 6 -10 25 -20 25 -5 0 -4 -6 3 -14z"/>
<path d="M406 1589 c4 -6 0 -15 -7 -20 -8 -5 -9 -9 -3 -9 6 0 17 6 23 14 9 11
8 15 -4 20 -10 4 -14 2 -9 -5z"/>
<path d="M920 1490 c-8 -5 -11 -12 -7 -16 4 -4 2 -13 -4 -20 -7 -9 -6 -14 3
-20 7 -4 10 -4 6 1 -4 4 -3 14 3 22 6 7 8 13 4 13 -4 0 -2 7 5 15 14 17 11 19
-10 5z"/>
<path d="M335 1441 c-3 -5 -2 -12 3 -15 5 -3 9 1 9 9 0 17 -3 19 -12 6z"/>
<path d="M306 1278 c3 -5 10 -6 15 -3 13 9 11 12 -6 12 -8 0 -12 -4 -9 -9z"/>
<path d="M850 1236 c0 -2 8 -10 18 -17 15 -13 16 -12 3 4 -13 16 -21 21 -21
13z"/>
<path d="M315 1090 c3 -5 8 -10 11 -10 2 0 4 5 4 10 0 6 -5 10 -11 10 -5 0 -7
-4 -4 -10z"/>
<path d="M895 1040 c-3 -5 -2 -10 4 -10 5 0 13 5 16 10 3 6 2 10 -4 10 -5 0
-13 -4 -16 -10z"/>
<path d="M896 1003 c-6 -14 -5 -15 5 -6 7 7 10 15 7 18 -3 3 -9 -2 -12 -12z"/>
<path d="M345 1000 c3 -5 8 -10 11 -10 2 0 4 5 4 10 0 6 -5 10 -11 10 -5 0 -7
-4 -4 -10z"/>
<path d="M389 943 c-13 -16 -12 -17 4 -4 9 7 17 15 17 17 0 8 -8 3 -21 -13z"/>
<path d="M405 910 c-3 -6 1 -7 9 -4 18 7 21 14 7 14 -6 0 -13 -4 -16 -10z"/>
<path d="M1030 801 c0 -6 4 -13 10 -16 6 -3 7 1 4 9 -7 18 -14 21 -14 7z"/>
<path d="M1024 738 c-4 -7 -4 -10 1 -6 4 4 15 2 24 -5 14 -11 14 -10 2 6 -16
20 -18 21 -27 5z"/>
<path d="M1015 709 c-4 -6 -5 -12 -2 -15 2 -3 7 2 10 11 7 17 1 20 -8 4z"/>
<path d="M750 691 c0 -5 5 -13 10 -16 6 -3 10 -2 10 4 0 5 -4 13 -10 16 -5 3
-10 2 -10 -4z"/>
<path d="M1585 1811 c-6 -11 9 -23 19 -14 9 9 7 23 -3 23 -6 0 -12 -4 -16 -9z"/>
<path d="M1817 1783 c3 -7 6 -13 8 -13 2 0 5 6 8 13 3 8 -1 14 -8 14 -7 0 -11
-6 -8 -14z"/>
<path d="M1475 1770 c-4 -6 -10 -8 -15 -5 -5 3 -11 1 -14 -4 -3 -5 1 -11 9
-15 8 -3 15 -1 15 5 0 6 4 8 8 5 5 -3 9 1 9 9 0 18 -3 19 -12 5z"/>
<path d="M1930 1747 c0 -8 7 -14 15 -14 11 0 12 4 4 14 -6 7 -13 13 -15 13 -2
0 -4 -6 -4 -13z"/>
<path d="M1540 1628 c0 -9 7 -19 16 -22 15 -6 15 -4 3 11 -7 10 -15 20 -16 22
-2 2 -3 -3 -3 -11z"/>
<path d="M1570 1546 c0 -2 6 -9 14 -15 11 -9 16 -9 22 0 4 8 3 9 -4 5 -7 -4
-12 -2 -12 3 0 6 -4 11 -10 11 -5 0 -10 -2 -10 -4z"/>
<path d="M2158 1483 c7 -3 16 -2 19 1 4 3 -2 6 -13 5 -11 0 -14 -3 -6 -6z"/>
<path d="M1615 1420 c3 -5 8 -10 11 -10 2 0 4 5 4 10 0 6 -5 10 -11 10 -5 0
-7 -4 -4 -10z"/>
<path d="M2205 1340 c-3 -5 -1 -10 4 -10 6 0 11 5 11 10 0 6 -2 10 -4 10 -3 0
-8 -4 -11 -10z"/>
<path d="M2215 1309 c-4 -6 -5 -12 -2 -15 2 -3 7 2 10 11 7 17 1 20 -8 4z"/>
<path d="M1629 1133 c-13 -15 -12 -15 9 -4 23 12 28 21 13 21 -5 0 -15 -7 -22
-17z"/>
<path d="M2170 1019 c0 -5 -5 -7 -12 -3 -7 4 -8 3 -4 -5 6 -9 11 -9 22 0 17
14 18 19 4 19 -5 0 -10 -5 -10 -11z"/>
<path d="M1565 920 c-3 -5 -2 -10 4 -10 5 0 13 5 16 10 3 6 2 10 -4 10 -5 0
-13 -4 -16 -10z"/>
<path d="M1495 810 c-3 -5 -1 -10 4 -10 6 0 11 5 11 10 0 6 -2 10 -4 10 -3 0
-8 -4 -11 -10z"/>
<path d="M1904 742 c3 -5 0 -12 -6 -15 -7 -2 -10 -7 -7 -11 3 -4 12 0 18 8 9
11 9 16 0 22 -7 4 -9 3 -5 -4z"/>
<path d="M1470 718 c0 -4 4 -8 9 -8 6 0 12 4 15 8 3 5 -1 9 -9 9 -8 0 -15 -4
-15 -9z"/>
<path d="M1520 705 c0 -2 6 -8 13 -14 10 -8 14 -7 14 2 0 8 -6 14 -14 14 -7 0
-13 -1 -13 -2z"/>
<path d="M1308 1543 c6 -2 9 -10 6 -15 -4 -7 -2 -8 5 -4 13 9 5 26 -12 25 -9
0 -8 -2 1 -6z"/>
<path d="M1370 1299 c0 -5 5 -7 10 -4 6 3 10 8 10 11 0 2 -4 4 -10 4 -5 0 -10
-5 -10 -11z"/>
<path d="M1134 1272 c-15 -25 -11 -65 6 -69 12 -4 12 -3 2 5 -8 5 -14 13 -14
17 0 4 6 12 14 16 11 7 11 9 -1 9 -11 0 -11 3 -1 15 7 9 11 17 9 20 -3 2 -9
-4 -15 -13z"/>
<path d="M1385 1280 c-3 -6 1 -7 9 -4 18 7 21 14 7 14 -6 0 -13 -4 -16 -10z"/>
<path d="M1148 1093 c7 -3 16 -2 19 1 4 3 -2 6 -13 5 -11 0 -14 -3 -6 -6z"/>
<path d="M1334 1004 c-18 -14 -18 -15 4 -4 12 6 22 13 22 15 0 8 -5 6 -26 -11z"/>
<path d="M1215 940 c-3 -5 -1 -10 4 -10 6 0 11 5 11 10 0 6 -2 10 -4 10 -3 0
-8 -4 -11 -10z"/>
<path d="M1720 2021 c0 -6 4 -13 10 -16 6 -3 7 1 4 9 -7 18 -14 21 -14 7z"/>
<path d="M1777 2023 c-10 -9 -9 -23 1 -23 5 0 9 7 9 15 0 17 -1 18 -10 8z"/>
<path d="M1476 1998 c3 -5 10 -6 15 -3 13 9 11 12 -6 12 -8 0 -12 -4 -9 -9z"/>
<path d="M1825 2000 c-3 -6 1 -7 9 -4 18 7 21 14 7 14 -6 0 -13 -4 -16 -10z"/>
<path d="M1870 2001 c0 -6 4 -12 8 -15 5 -3 9 1 9 9 0 8 -4 15 -9 15 -4 0 -8
-4 -8 -9z"/>
<path d="M1435 1990 c-3 -5 -1 -10 4 -10 6 0 11 5 11 10 0 6 -2 10 -4 10 -3 0
-8 -4 -11 -10z"/>
<path d="M595 1980 c-4 -6 -11 -7 -17 -4 -7 4 -8 2 -4 -5 6 -9 11 -9 22 0 14
11 18 19 10 19 -3 0 -8 -5 -11 -10z"/>
<path d="M1333 1963 c4 -3 1 -13 -6 -22 -11 -14 -10 -14 5 -2 16 12 16 31 1
31 -4 0 -3 -3 0 -7z"/>
<path d="M1970 1959 c0 -5 5 -7 10 -4 6 3 10 8 10 11 0 2 -4 4 -10 4 -5 0 -10
-5 -10 -11z"/>
<path d="M295 1820 c3 -5 8 -10 11 -10 2 0 4 5 4 10 0 6 -5 10 -11 10 -5 0 -7
-4 -4 -10z"/>
<path d="M2217 1819 c7 -7 15 -10 18 -7 3 3 -2 9 -12 12 -14 6 -15 5 -6 -5z"/>
<path d="M186 1702 c-3 -5 1 -12 9 -16 15 -5 31 11 21 21 -3 4 -6 0 -6 -8 0
-12 -2 -12 -9 0 -5 8 -11 9 -15 3z"/>
<path d="M2325 1680 c-3 -6 1 -7 9 -4 18 7 21 14 7 14 -6 0 -13 -4 -16 -10z"/>
<path d="M150 1619 c0 -5 5 -7 10 -4 6 3 10 8 10 11 0 2 -4 4 -10 4 -5 0 -10
-5 -10 -11z"/>
<path d="M2375 1621 c-3 -5 -2 -12 3 -15 5 -3 9 1 9 9 0 17 -3 19 -12 6z"/>
<path d="M2447 1453 c3 -7 6 -13 8 -13 2 0 5 6 8 13 3 8 -1 14 -8 14 -7 0 -11
-6 -8 -14z"/>
<path d="M2456 1131 c-4 -5 -2 -12 3 -15 5 -4 12 -2 15 3 4 5 2 12 -3 15 -5 4
-12 2 -15 -3z"/>
<path d="M2419 933 c-13 -16 -12 -17 4 -4 16 13 21 21 13 21 -2 0 -10 -8 -17
-17z"/>
<path d="M233 745 c0 -8 4 -12 9 -9 5 3 6 10 3 15 -9 13 -12 11 -12 -6z"/>
<path d="M2150 619 c0 -5 5 -7 10 -4 6 3 10 8 10 11 0 2 -4 4 -10 4 -5 0 -10
-5 -10 -11z"/>
<path d="M550 536 c0 -2 7 -7 16 -10 8 -3 12 -2 9 4 -6 10 -25 14 -25 6z"/>
<path d="M1410 516 c0 -2 7 -7 16 -10 8 -3 12 -2 9 4 -6 10 -25 14 -25 6z"/>
<path d="M1706 464 c-5 -14 -4 -15 9 -4 17 14 19 20 6 20 -5 0 -12 -7 -15 -16z"/>
</g>
</svg>
