<?xml version="1.0" standalone="no"?>
<!DOCTYPE svg PUBLIC "-//W3C//DTD SVG 20010904//EN"
 "http://www.w3.org/TR/2001/REC-SVG-20010904/DTD/svg10.dtd">
<svg version="1.0" xmlns="http://www.w3.org/2000/svg"
 width="500.000000pt" height="500.000000pt" viewBox="0 0 500.000000 500.000000"
 preserveAspectRatio="xMidYMid meet">
<metadata>
Created by potrace 1.14, written by Peter Selinger 2001-2017
</metadata>
<g transform="translate(0.000000,500.000000) scale(0.100000,-0.100000)"
fill="#000000" stroke="none">
<path d="M979 4140 c-5 -4 -8 -96 -8 -205 l1 -200 561 -562 561 -562 -263
-262 -263 -262 -153 153 c-173 173 -164 170 -211 71 -21 -43 -27 -71 -28 -121
0 -101 29 -153 168 -292 64 -65 116 -119 116 -122 0 -2 -96 -100 -214 -217
l-213 -214 -79 0 c-66 -1 -88 -5 -129 -27 -108 -56 -159 -139 -160 -258 0
-124 58 -214 172 -267 100 -46 237 -21 319 58 60 58 97 164 83 243 l-6 39 219
219 219 219 121 -121 c70 -69 140 -129 165 -141 92 -44 207 -34 297 27 l38 26
-156 157 -156 156 263 263 262 262 263 -263 262 -262 -155 -155 -155 -154 28
-23 c50 -42 93 -56 177 -57 112 -1 147 19 294 165 l120 119 219 -219 219 -219
-6 -39 c-28 -164 116 -326 290 -325 249 2 379 296 213 481 -59 66 -126 94
-224 96 l-75 1 -185 186 c-102 102 -198 199 -214 217 l-30 31 106 105 c59 57
117 119 131 137 59 79 68 199 23 292 -47 95 -38 98 -211 -74 l-153 -153 -263
262 -263 262 561 562 561 562 -1 202 c0 176 -2 202 -16 205 -9 2 -101 3 -206
3 l-190 -1 -557 -557 c-306 -306 -559 -557 -563 -557 -4 0 -258 251 -565 558
l-557 557 -198 0 c-108 0 -201 -2 -206 -5z"/>
</g>
</svg>
